inDegrees=yes
name=greeting_output.mot
DataType=double
version=3
OpenSimVersion=4.5
endheader
time	pelvis_tilt	pelvis_list	pelvis_rotation	pelvis_tx	pelvis_ty	pelvis_tz	hip_flexion_r	hip_adduction_r	hip_rotation_r	knee_angle_r	knee_angle_r_beta	ankle_angle_r	subtalar_angle_r	mtp_angle_r	hip_flexion_l	hip_adduction_l	hip_rotation_l	knee_angle_l	knee_angle_l_beta	ankle_angle_l	subtalar_angle_l	mtp_angle_l	lumbar_extension	lumbar_bending	lumbar_rotation	arm_flex_r	arm_add_r	arm_rot_r	elbow_flex_r	pro_sup_r	wrist_flex_r	wrist_dev_r	arm_flex_l	arm_add_l	arm_rot_l	elbow_flex_l	pro_sup_l	wrist_flex_l	wrist_dev_l
2.134615384615381	5.818905417304432	-15.25978308554226	166.8871484896498	0	0.93	0	9.761667161866537	-13.95462524363778	0.9479795989199763	0.894151280344358	0.0156058838529319	-4.99547499332237	0	0	9.191785213481582	14.55028997722738	2.271343803672589	0.2147703901745912	0.003748450444339496	-4.995474992378564	0	0	0	0	0	0	0	-4.478626998803692	3.51671598238615e-39	7.648612515531986e-39	0	0	0	0	0.3176198176911884	0	5.3520643531728e-39	0	0
2.153846153846151	1.284042892595809	-17.1169410854144	166.160176102399	0	0.93	0	6.222768222534968	-16.591105661465	2.412128098813033	0.9698951214896993	0.01692786326902566	-4.995507434359721	0	0	5.896344982011118	17.16683994441359	-0.5951377384908161	0.6334127735477464	0.01105513842259742	-4.995507433422691	0	0	0	0	0	0	0	-2.021848862338784	2.479612722720437e-45	1.050650133895774e-44	0	0	0	0	0.1447739424392815	7.52704573537271e-45	0	0	0
2.17307692307692	-0.5456077362920811	-16.78345442397006	166.22905702903	0	0.93	0	4.311271884145521	-16.5882953126215	1.240482990286429	0.8204663217047661	0.01431983871547518	-4.9956011049602	5.017883289958314e-16	3.708112971465397e-14	3.006402590144614	17.24654268710223	4.615648465176998	0.1495501417364233	0.002610142370124777	-4.995601104045848	-1.608493867651676e-16	6.891919413110414e-15	7.326624751163823e-26	-4.548043851110391e-24	-5.879893220862655e-26	-3.762322453113062e-21	-6.467634964365286e-22	2.2525998186288	0	2.955991523568068e-15	1.307860916637485e-23	-9.179912655773308e-23	5.139299915156418e-15	6.115431050420721e-15	0.3599979842669028	0	0	-3.325481355881472e-22	1.032259149797261e-23
2.192307692307689	-2.170743438991255	-16.52843704336961	166.2316027124415	0	0.93	0	2.706669412704747	-16.76872693538793	0.6449059212634304	0.993888476679562	0.01734662631568924	-4.995631751621307	0	0	1.469903930436422	17.41432462554743	3.376364419820143	0.2221093955976861	0.003876540252794222	-4.995631750713335	0	0	0	0	0	0	0	2.045172401000813	0	0	0	0	0	0	0.3867628236838088	0	3.388907917161515e-39	0	0
2.211538461538458	-5.213670258526217	-14.93413011265076	165.6114151425903	0	0.93	0	-0.6620183622804412	-16.15690847669832	0.5259769313922048	0.7496701429282483	0.01308421229799442	-4.9956652175548	0	0	-2.638176560974654	16.62452910744007	6.827660784825208	0.1021763252639365	0.001783313293444356	-4.995665216651374	0	0	0	0	0	0	0	1.001258670176606	1.137773743795898e-38	4.932924693133859e-39	0	0	0	0	0.3953016196346421	0	7.430091113762996e-40	0	0
2.230769230769227	-7.369580570970887	-12.65331083380687	165.4181594656028	0	0.93	0	-3.556787135349959	-14.7758506043295	0.7714339146473157	0.6316910719372408	0.01102508906075721	-4.995704702458447	0	0	-5.43682039363437	14.99739521675266	5.601580730326423	0.1017151319077739	0.001775263950890996	-4.9957047015632	0	0	0	0	0	0	0	0.6291184328181285	0	0	0	0	0	0	0.293279413175372	0	0	0	0
2.249999999999996	-6.50012760645196	-12.32068339466392	165.7843905242494	0	0.93	0	-2.922269721817909	-14.44856147533485	0.1952867605548848	0.7646485249809372	0.01334563438143547	-4.995750821026363	0	0	-4.103793328155724	14.35502052156417	2.12506377037964	0.2468483097289837	0.004308315757753517	-4.995750820140726	0	0	0	0	0	0	0	2.142930236620444	0	7.384126289396788e-39	0	0	0	0	0.7331785201379121	0	6.679044561795922e-40	0	0
2.269230769230766	-5.854560403295933	-13.50358317187571	165.7070549490656	0	0.93	0	-2.110124333160993	-15.60759990670065	-0.8621780640647104	0.838950670323785	0.01464245145896353	-4.995778786437707	2.568972145845681e-15	3.489884922115751e-17	-3.5438434178273	15.33821271576968	5.387646622119829	0.1139786212516501	0.001989302217724874	-4.995778785557834	-4.365918958861651e-15	3.103834232136804e-17	-3.667263143911525e-27	4.972243026569474e-27	-3.881281117519445e-23	-1.769790356311834e-16	-1.140154495188077e-17	-0.08213868879125223	0	9.086671050802333e-15	-2.012982554713782e-20	-5.362106059183232e-20	5.621406760157725e-16	1.288502824276133e-15	0.4617975284981704	8.976655857112522e-16	1.558314736441098e-14	4.239055173067639e-20	-7.09700791859576e-20
2.288461538461535	-5.216345571859031	-11.16974997924505	165.6719742644654	0	0.93	0	-1.707715126291035	-13.23514403517305	-0.2794115547760882	1.194297884419163	0.02084443033271709	-4.995843579311846	0	0	-3.304583709030516	12.97853636598415	4.115405531261262	0.1287297922610956	0.002246758720364434	-4.995843578445488	0	0	0	0	0	0	0	-0.02501309920423277	0	0	0	0	0	0	0.6574254646076437	0	0	0	0
2.307692307692304	-4.024129512680056	-8.255847138167322	165.7611510064952	0	0.93	0	-1.156934508866698	-10.10042744981245	0.8128438494393979	0.9168669288628081	0.01600234671130463	-4.995879903372141	-6.269396118545007e-21	-3.278720522335252e-19	-2.568809256633392	9.944747738638522	2.391176824797294	0.1570525873169937	0.002741084747457428	-4.995879902513346	-5.790486614381085e-21	2.643728495973979e-19	-1.484268925639887e-28	3.346494140665588e-28	2.098264271527358e-27	-1.457716517382867e-16	-3.717144222825333e-18	-2.58888389374383	5.57837774834002e-15	0	2.306960795126534e-22	1.311641204998806e-20	5.66764994992455e-18	3.039486214548636e-18	0.3871223358601791	5.926478550950812e-15	0	5.842931453373271e-22	1.411239963544044e-20
2.326923076923073	-3.537433772457658	-7.027369426265437	165.7065791797091	0	0.93	0	-1.26294353285018	-8.752925459035064	-0.2297199218315597	0.8873407929319124	0.0154870184239191	-4.995906324044066	0	0	-2.368777109642029	8.546610487188115	3.061807411998902	0.1413447809887739	0.002466931808764391	-4.995906323190157	0	0	0	0	0	0	0	-3.640351097027154	1.517850726421302e-39	6.795639016150403e-39	0	0	0	0	0.1981928144531598	2.817177278625559e-38	0	0	0
2.346153846153842	-3.153502379586506	-6.922002518887174	166.0966051424207	0	0.93	0	-0.9448512318867981	-8.439982932385702	0.1008413215153982	0.8287177308926009	0.01446385297373221	-4.99593702492535	0	0	-1.059596352060082	8.149219528555903	0.5236947812812283	0.3044331329665997	0.005313360522428857	-4.995937024080034	0	0	0	0	0	0	0	-5.394761239445787	0	1.052357267868557e-38	0	0	0	0	-0.08012391068622876	2.104714535737113e-38	0	0	0
2.365384615384611	-2.764753500204611	-6.532826931100161	165.7682325010066	0	0.93	0	-0.6170884807909787	-7.815957343990133	-1.2280331449666	1.143462070111751	0.01995717799512029	-4.99596210100599	0	0	-0.388000542104837	7.700553152815539	2.381008124510378	0.3078625257480256	0.005373214717808865	-4.995962100165891	0	0	0	0	0	0	0	-5.388365392893043	0	0	0	0	0	0	-0.7431485403497998	0	0	0	0
2.384615384615381	-2.505216301432532	-6.776891003923793	166.1165485150265	0	0.93	0	-0.505757595813192	-7.689847245337548	-0.2984882538795008	0.7843443040551512	0.0136893905750259	-4.995990312028504	0	0	0.133775357659834	7.793663414390505	1.213595480201301	0.3797275401657221	0.006627495836390865	-4.995990311194269	0	0	0	0	0	0	0	-9.321449095621093	9.477199325566039e-39	1.350788557897171e-38	0	0	0	0	0.4042967967904096	0	0	0	0
2.40384615384615	-3.122618912106037	-5.862308041490314	165.9919551146766	0	0.93	0	-1.474637567457785	-6.757681435301842	-0.01026880162705178	0.9005499458056001	0.01571756163296422	-4.996020942851503	0	0	-0.3670969560132416	7.131917353107733	0.365474873515164	0.7063661673813547	0.01232841534549801	-4.996020942023646	0	0	0	0	0	0	0	-6.829287783482925	7.794998135457366e-39	0	0	0	0	0	0.2209450206564303	0	9.493005957319389e-39	0	0
2.423076923076919	-2.479833883455428	-3.794124298683379	166.2174860354725	0	0.93	0	-1.224808702265513	-4.25083584392222	0.2414391611731553	0.8212090176060532	0.01433280120429371	-4.996058563970822	0	0	-0.7925972475694353	4.841406928540153	2.13123600216197	0.4006620629541625	0.006992872186382934	-4.996058563150801	0	0	0	0	0	0	0	-2.612220614576942	0	0	0	0	0	0	0.05980929791846799	8.127393749240729e-39	1.530463373563743e-38	0	0
2.442307692307688	-1.51809786135152	-2.626867460627966	166.1172373769032	0	0.93	0	-0.2684919193626921	-2.689672922822304	0.6296064859254324	0.9244519303952947	0.01613472996181534	-4.996083436829894	0	0	-0.4082539652770039	3.395463773365849	1.996417291739443	0.3913322711190035	0.006830036600333725	-4.996083436013125	0	0	0	0	0	0	0	-4.338785556835469	5.133199308030166e-39	1.055050444832673e-38	0	0	0	0	0.6057727943758721	0	0	0	0
2.461538461538457	-0.8840177431969495	-1.508028122294433	166.1384337416098	0	0.93	0	-0.008532958836076765	-1.27000154705404	0.4972119588429583	0.7710122318758458	0.01345670201938349	-4.996117266620423	0	0	-0.8045899307422053	1.805934697783037	3.900769290536257	0.1692901043945788	0.002954669712730322	-4.9961172658107	0	0	0	0	0	0	0	-2.000329260779383	9.656773145891516e-40	3.57987737858092e-39	0	0	0	0	-0.4411242919242663	0	1.872270283929886e-38	0	0
2.480769230769226	-0.9817485367415396	-1.598425592455031	166.1626799970986	0	0.93	0	-0.002379153628349307	-1.3205298039954	0.4844182891942269	0.7783736948909556	0.01358518378676094	-4.996147740508955	0	0	-0.6261450738506493	1.582036816524476	0.9977584170711077	0.3377316021817771	0.005894528446107674	-4.996147739705583	0	0	0	0	0	0	0	-1.633587487176704	6.028173477195211e-45	3.008487818222498e-45	0	0	0	0	0.1868682764572088	4.760028251079607e-46	3.438969188136809e-45	0	0
2.499999999999996	-1.669439472193542	-3.42240067917524	166.1594068316413	0	0.93	0	-0.2471417493755952	-3.222287022155582	0.1876126693548037	0.8103252574226435	0.01414284375409575	-4.996181169204391	0	0	-1.010916187601591	3.44919283551451	2.156553525595284	0.2633496010454994	0.004596317622057466	-4.996181168407984	0	0	0	0	0	0	0	1.505264388436335	0	0	0	0	0	0	0.3987937439727361	0	1.032258777725471e-39	0	0
2.519230769230765	-3.274053835589674	-4.412814543883392	166.0343346420965	0	0.93	0	-1.455418315119466	-5.137368741102839	0.5450987394478761	1.11503251356934	0.01946098862857333	-4.996216114002831	0	0	-2.415256792155973	4.488180907669562	4.511317818994176	0.2051320599631188	0.003580229847754861	-4.996216113213714	0	0	0	0	0	0	0	3.034471369746448	0	0	0	0	0	0	1.010547943929387	0	0	0	0
2.538461538461534	-3.473080254390295	-6.226338065029018	165.9228296972482	0	0.93	0	-1.564949011771441	-6.393961033960283	0.05947183092264403	0.8127328185494354	0.01418486362270129	-4.996244019908365	0	0	-1.691071575533857	6.144973813646022	2.82179629598452	0.3375820913622465	0.005891918990039512	-4.996244019125728	0	0	0	0	0	0	0	6.27477180970026	7.883543086812508e-39	1.73846479885297e-38	0	0	0	0	0.06546365606017306	3.787077561612626e-39	1.63109826577904e-39	0	0
2.557692307692303	-2.877016020377664	-6.614192986481923	165.9677284004343	0	0.93	0	-0.8696975877468339	-6.025327267772711	0.5630423678895885	0.7168031685002844	0.01251057537905767	-4.996268863752134	0	0	-1.419118152170361	6.332268424247528	4.176500350675076	0.1631846944348379	0.002848110206748789	-4.996268862974671	0	0	0	0	0	0	0	8.844210474329863	0	0	0	0	0	0	-0.1690761835324178	0	0	0	0
